# Blender 4.5.7 LTS
# www.blender.org
mtllib Tunnel.mtl
o トンネル
v 0.000000 5.995362 -20.191545
v 0.000000 5.995361 20.191547
v 1.169637 5.880163 -20.191545
v 1.169637 5.880162 20.191547
v 2.294326 5.538993 -20.191545
v 2.294326 5.538992 20.191547
v 3.330844 4.984962 -20.191545
v 3.330844 4.984961 20.191545
v 4.239361 4.239361 -20.191545
v 4.239361 4.239361 20.191547
v 4.984961 3.330846 -20.191547
v 4.984961 3.330844 20.191547
v 5.538992 2.294326 -20.191547
v 5.538992 2.294325 20.191547
v 5.880162 1.169638 -20.191547
v 5.880162 1.169637 20.191547
v 5.995361 -0.000000 -20.191547
v 5.995361 -0.000000 20.191547
v 5.880162 -1.169637 -20.191547
v 5.880162 -1.169638 20.191547
v 5.538992 -2.294325 -20.191547
v 5.538992 -2.294326 20.191547
v 4.984961 -3.330844 -20.191547
v 4.984961 -3.330846 20.191547
v -4.984961 -3.330844 -20.191547
v -4.984961 -3.330846 20.191547
v -5.538992 -2.294325 -20.191547
v -5.538992 -2.294326 20.191547
v -5.880162 -1.169637 -20.191547
v -5.880162 -1.169638 20.191547
v -5.995361 -0.000000 -20.191547
v -5.995361 -0.000000 20.191547
v -5.880162 1.169638 -20.191547
v -5.880162 1.169637 20.191547
v -5.538992 2.294326 -20.191547
v -5.538992 2.294325 20.191547
v -4.984961 3.330846 -20.191547
v -4.984961 3.330844 20.191547
v -4.239361 4.239361 -20.191545
v -4.239361 4.239361 20.191547
v -3.330844 4.984962 -20.191545
v -3.330844 4.984961 20.191545
v -2.294326 5.538993 -20.191545
v -2.294326 5.538992 20.191547
v -1.169637 5.880163 -20.191545
v -1.169637 5.880162 20.191547
v -4.343770 2.902414 20.191547
v -2.902414 4.343770 20.191547
v -3.694073 3.694073 20.191547
v -1.019192 5.123826 20.191547
v -1.999218 4.826539 20.191547
v 1.019192 5.123826 20.191547
v -0.000000 5.224207 20.191547
v -5.224207 -0.000000 20.191547
v -5.123826 1.019192 20.191547
v -5.123826 -1.019193 20.191547
v -4.343770 -2.902415 20.191547
v -4.826539 -1.999218 20.191547
v 4.343770 -2.902415 20.191547
v 2.902414 4.343770 20.191547
v 4.343770 2.902414 20.191547
v 3.694072 3.694073 20.191547
v 5.224207 -0.000000 20.191547
v 5.123826 -1.019193 20.191547
v 5.123826 1.019192 20.191547
v 4.826539 1.999218 20.191547
v -4.826539 1.999218 20.191547
v 4.826539 -1.999218 20.191547
v 1.999218 4.826539 20.191547
v -0.000000 5.224208 -20.191545
v 1.999218 4.826540 -20.191545
v 1.019192 5.123827 -20.191545
v 3.694072 3.694073 -20.191545
v 4.343770 2.902415 -20.191547
v 4.826539 1.999218 -20.191547
v 2.902414 4.343771 -20.191545
v 4.826539 -1.999218 -20.191547
v 4.343770 -2.902414 -20.191547
v 5.224207 -0.000000 -20.191547
v 5.123826 -1.019192 -20.191547
v -4.826539 -1.999218 -20.191547
v -4.343770 -2.902414 -20.191547
v -5.224207 -0.000000 -20.191547
v -4.826539 1.999218 -20.191547
v -5.123826 1.019193 -20.191547
v -3.694073 3.694073 -20.191547
v -1.999218 4.826540 -20.191545
v -2.902414 4.343771 -20.191545
v -4.343770 2.902415 -20.191547
v 5.123826 1.019193 -20.191547
v -5.123826 -1.019192 -20.191547
v -1.019192 5.123827 -20.191545
vn -0.0000 1.0000 -0.0000
vn 0.1951 0.9808 -0.0000
vn 0.3827 0.9239 -0.0000
vn 0.5556 0.8315 -0.0000
vn 0.7071 0.7071 -0.0000
vn 0.8315 0.5556 -0.0000
vn 0.9239 0.3827 -0.0000
vn 0.9808 0.1951 -0.0000
vn 1.0000 -0.0000 -0.0000
vn 0.9808 -0.1951 -0.0000
vn 0.9239 -0.3827 -0.0000
vn 0.8819 -0.4714 -0.0000
vn -0.8819 -0.4714 -0.0000
vn -0.9239 -0.3827 -0.0000
vn -0.9808 -0.1951 -0.0000
vn -1.0000 -0.0000 -0.0000
vn -0.9808 0.1951 -0.0000
vn -0.9239 0.3827 -0.0000
vn -0.8315 0.5556 -0.0000
vn -0.7071 0.7071 -0.0000
vn -0.5556 0.8315 -0.0000
vn -0.3827 0.9239 -0.0000
vn -0.0000 -0.0000 1.0000
vn -0.1951 0.9808 -0.0000
vn -0.0000 -0.0000 -1.0000
vn -0.0000 -1.0000 -0.0000
vn -0.1951 -0.9808 -0.0000
vn -0.3827 -0.9239 -0.0000
vn -0.5556 -0.8315 -0.0000
vn -0.7071 -0.7071 -0.0000
vn -0.8315 -0.5556 -0.0000
vn -0.8819 0.4714 -0.0000
vn 0.8819 0.4714 -0.0000
vn 0.8315 -0.5556 -0.0000
vn 0.7071 -0.7071 -0.0000
vn 0.5556 -0.8315 -0.0000
vn 0.3827 -0.9239 -0.0000
vn 0.1951 -0.9808 -0.0000
vt 1.000000 1.000000
vt 0.968750 0.500000
vt 1.000000 0.500000
vt 0.968750 1.000000
vt 0.937500 0.500000
vt 0.937500 1.000000
vt 0.906250 0.500000
vt 0.906250 1.000000
vt 0.875000 0.500000
vt 0.875000 1.000000
vt 0.843750 0.500000
vt 0.843750 1.000000
vt 0.812500 0.500000
vt 0.812500 1.000000
vt 0.781250 0.500000
vt 0.781250 1.000000
vt 0.750000 0.500000
vt 0.750000 1.000000
vt 0.718750 0.500000
vt 0.718750 1.000000
vt 0.687500 0.500000
vt 0.687500 1.000000
vt 0.656250 0.500000
vt 0.343750 1.000000
vt 0.312500 0.500000
vt 0.343750 0.500000
vt 0.312500 1.000000
vt 0.281250 0.500000
vt 0.281250 1.000000
vt 0.250000 0.500000
vt 0.250000 1.000000
vt 0.218750 0.500000
vt 0.218750 1.000000
vt 0.187500 0.500000
vt 0.187500 1.000000
vt 0.156250 0.500000
vt 0.156250 1.000000
vt 0.125000 0.500000
vt 0.125000 1.000000
vt 0.093750 0.500000
vt 0.093750 1.000000
vt 0.062500 0.500000
vt 0.397877 0.397877
vt 0.423885 0.366186
vt 0.449553 0.383337
vt 0.028269 0.341844
vt 0.056789 0.330031
vt 0.076115 0.366186
vt 0.062500 1.000000
vt 0.031250 0.500000
vt 0.031250 1.000000
vt 0.000000 0.500000
vt 0.883337 0.449553
vt 0.866186 0.423885
vt 0.830030 0.443211
vt 1.000000 0.965929
vt 0.968750 0.534071
vt 0.968750 0.965929
vt 0.937500 0.534071
vt 0.937500 0.965929
vt 0.906250 0.534071
vt 0.906250 0.965929
vt 0.875000 0.534071
vt 0.875000 0.965929
vt 0.843750 0.965929
vt 0.843750 0.534071
vt 0.812500 0.965929
vt 0.812500 0.534071
vt 0.781250 0.965929
vt 0.781250 0.534071
vt 0.750000 0.965929
vt 0.750000 0.534071
vt 0.718750 0.965929
vt 0.718750 0.534071
vt 0.687500 0.965929
vt 0.687500 0.534071
vt 0.656250 0.965929
vt 0.343750 0.965929
vt 0.312500 0.534071
vt 0.312500 0.965929
vt 0.281250 0.965929
vt 0.250000 0.534071
vt 0.250000 0.965929
vt 0.218750 0.534071
vt 0.218750 0.965929
vt 0.187500 0.534071
vt 0.187500 0.965929
vt 0.156250 0.534071
vt 0.156250 0.965929
vt 0.125000 0.534071
vt 0.125000 0.965929
vt 0.093750 0.534071
vt 0.093750 0.965929
vt 0.062500 0.534071
vt 0.062500 0.965929
vt 0.031250 0.534071
vt 0.031250 0.965929
vt 0.000000 0.534071
vt 0.000000 0.965929
vt 0.459130 0.250000
vt 0.455112 0.209201
vt 0.485388 0.203178
vt 0.514612 0.203178
vt 0.544888 0.209201
vt 0.556789 0.169969
vt 0.656250 1.000000
vt 0.443211 0.330031
vt 0.471731 0.341844
vt 0.419706 0.419706
vt 0.383337 0.449553
vt 0.341844 0.471731
vt 0.366186 0.423885
vt 0.330031 0.443211
vt 0.290799 0.455112
vt 0.296822 0.485388
vt 0.250000 0.490000
vt 0.250000 0.459130
vt 0.203178 0.485388
vt 0.209201 0.455112
vt 0.158156 0.471731
vt 0.116663 0.449553
vt 0.133814 0.423885
vt 0.080294 0.419706
vt 0.102123 0.397877
vt 0.050447 0.383337
vt 0.014612 0.296822
vt 0.044888 0.290799
vt 0.010000 0.250000
vt 0.040870 0.250000
vt 0.014612 0.203178
vt 0.028269 0.158156
vt 0.044888 0.209201
vt 0.050447 0.116663
vt 0.076115 0.133814
vt 0.056789 0.169969
vt 0.169969 0.443211
vt 0.000000 1.000000
vt 0.540870 0.250000
vt 0.510000 0.250000
vt 0.514612 0.296822
vt 0.544888 0.290799
vt 0.528269 0.341844
vt 0.556789 0.330031
vt 0.550447 0.383337
vt 0.580294 0.419706
vt 0.602123 0.397877
vt 0.616663 0.449553
vt 0.633814 0.423885
vt 0.658156 0.471731
vt 0.703178 0.485388
vt 0.669969 0.443211
vt 0.750000 0.490000
vt 0.750000 0.459130
vt 0.796822 0.485388
vt 0.790799 0.455112
vt 0.841844 0.471731
vt 0.919706 0.419706
vt 0.897877 0.397877
vt 0.949553 0.383337
vt 0.923885 0.366186
vt 0.971731 0.341844
vt 0.943211 0.330031
vt 0.985388 0.296822
vt 0.990000 0.250000
vt 0.959130 0.250000
vt 0.985388 0.203178
vt 0.955112 0.209201
vt 0.971731 0.158156
vt 0.949553 0.116663
vt 0.943211 0.169969
vt 0.923885 0.133814
vt 0.576115 0.366186
vt 0.955112 0.290799
vt 0.709201 0.455112
vt 1.000000 0.534071
vt 0.656250 0.534071
vt 0.343750 0.534071
vt 0.281250 0.534071
vt 0.443211 0.169969
vt 0.423885 0.133814
vt 0.449553 0.116663
vt 0.471731 0.158156
vt 0.490000 0.250000
vt 0.485388 0.296822
vt 0.455112 0.290799
vt 0.576115 0.133814
vt 0.550447 0.116663
vt 0.528269 0.158156
s 1
usemtl トンネル
f 2/1/1 3/2/2 1/3/1
f 4/4/2 5/5/3 3/2/2
f 6/6/3 7/7/4 5/5/3
f 8/8/4 9/9/5 7/7/4
f 10/10/5 11/11/6 9/9/5
f 12/12/6 13/13/7 11/11/6
f 14/14/7 15/15/8 13/13/7
f 16/16/8 17/17/9 15/15/8
f 18/18/9 19/19/10 17/17/9
f 20/20/10 21/21/11 19/19/10
f 22/22/11 23/23/12 21/21/11
f 26/24/13 27/25/14 25/26/13
f 28/27/14 29/28/15 27/25/14
f 30/29/15 31/30/16 29/28/15
f 32/31/16 33/32/17 31/30/16
f 34/33/17 35/34/18 33/32/17
f 36/35/18 37/36/19 35/34/18
f 38/37/19 39/38/20 37/36/19
f 40/39/20 41/40/21 39/38/20
f 42/41/21 43/42/22 41/40/21
f 62/43/23 61/44/23 12/45/23
f 36/46/23 67/47/23 47/48/23
f 44/49/22 45/50/24 43/42/22
f 46/51/24 1/52/1 45/50/24
f 7/53/25 76/54/25 71/55/25
f 53/56/26 72/57/27 52/58/27
f 52/58/27 71/59/28 69/60/28
f 69/60/28 76/61/29 60/62/29
f 60/62/29 73/63/30 62/64/30
f 73/63/30 61/65/31 62/64/30
f 74/66/31 66/67/14 61/65/31
f 75/68/14 65/69/15 66/67/14
f 90/70/15 63/71/16 65/69/15
f 79/72/16 64/73/17 63/71/16
f 80/74/17 68/75/18 64/73/17
f 77/76/18 59/77/32 68/75/18
f 57/78/33 81/79/7 58/80/7
f 81/79/7 56/81/8 58/80/7
f 56/81/8 83/82/9 54/83/9
f 54/83/9 85/84/10 55/85/10
f 55/85/10 84/86/11 67/87/11
f 67/87/11 89/88/34 47/89/34
f 47/89/34 86/90/35 49/91/35
f 49/91/35 88/92/36 48/93/36
f 48/93/36 87/94/37 51/95/37
f 51/95/37 92/96/38 50/97/38
f 50/97/38 70/98/26 53/99/26
f 63/100/23 64/101/23 20/102/23
f 29/103/25 91/104/25 81/105/25
f 2/1/1 4/4/2 3/2/2
f 4/4/2 6/6/3 5/5/3
f 6/6/3 8/8/4 7/7/4
f 8/8/4 10/10/5 9/9/5
f 10/10/5 12/12/6 11/11/6
f 12/12/6 14/14/7 13/13/7
f 14/14/7 16/16/8 15/15/8
f 16/16/8 18/18/9 17/17/9
f 18/18/9 20/20/10 19/19/10
f 20/20/10 22/22/11 21/21/11
f 22/22/11 24/106/12 23/23/12
f 26/24/13 28/27/14 27/25/14
f 28/27/14 30/29/15 29/28/15
f 30/29/15 32/31/16 31/30/16
f 32/31/16 34/33/17 33/32/17
f 34/33/17 36/35/18 35/34/18
f 36/35/18 38/37/19 37/36/19
f 38/37/19 40/39/20 39/38/20
f 40/39/20 42/41/21 41/40/21
f 42/41/21 44/49/22 43/42/22
f 61/44/23 66/107/23 14/108/23
f 14/108/23 12/45/23 61/44/23
f 12/45/23 10/109/23 62/43/23
f 10/109/23 8/110/23 62/43/23
f 8/110/23 6/111/23 60/112/23
f 62/43/23 8/110/23 60/112/23
f 6/111/23 69/113/23 60/112/23
f 52/114/23 69/113/23 6/111/23
f 6/111/23 4/115/23 52/114/23
f 4/115/23 2/116/23 53/117/23
f 2/116/23 46/118/23 50/119/23
f 46/118/23 44/120/23 50/119/23
f 44/120/23 42/121/23 48/122/23
f 42/121/23 40/123/23 49/124/23
f 40/123/23 38/125/23 47/48/23
f 38/125/23 36/46/23 47/48/23
f 36/46/23 34/126/23 55/127/23
f 34/126/23 32/128/23 54/129/23
f 32/128/23 30/130/23 54/129/23
f 30/130/23 28/131/23 56/132/23
f 54/129/23 30/130/23 56/132/23
f 28/131/23 26/133/23 57/134/23
f 28/131/23 57/134/23 58/135/23
f 34/126/23 54/129/23 55/127/23
f 42/121/23 49/124/23 48/122/23
f 4/115/23 53/117/23 52/114/23
f 50/119/23 53/117/23 2/116/23
f 28/131/23 58/135/23 56/132/23
f 51/136/23 50/119/23 44/120/23
f 48/122/23 51/136/23 44/120/23
f 36/46/23 55/127/23 67/47/23
f 47/48/23 49/124/23 40/123/23
f 44/49/22 46/51/24 45/50/24
f 46/51/24 2/137/1 1/52/1
f 83/138/25 91/104/25 29/103/25
f 29/103/25 31/139/25 83/138/25
f 31/139/25 33/140/25 85/141/25
f 33/140/25 35/142/25 84/143/25
f 35/142/25 37/144/25 84/143/25
f 37/144/25 39/145/25 86/146/25
f 39/145/25 41/147/25 88/148/25
f 41/147/25 43/149/25 88/148/25
f 43/149/25 45/150/25 87/151/25
f 88/148/25 43/149/25 87/151/25
f 45/150/25 1/152/25 70/153/25
f 1/152/25 3/154/25 72/155/25
f 3/154/25 5/156/25 72/155/25
f 5/156/25 7/53/25 71/55/25
f 72/155/25 5/156/25 71/55/25
f 7/53/25 9/157/25 73/158/25
f 9/157/25 11/159/25 74/160/25
f 11/159/25 13/161/25 75/162/25
f 13/161/25 15/163/25 75/162/25
f 15/163/25 17/164/25 79/165/25
f 17/164/25 19/166/25 80/167/25
f 19/166/25 21/168/25 80/167/25
f 21/168/25 23/169/25 77/170/25
f 80/167/25 21/168/25 77/170/25
f 23/169/25 78/171/25 77/170/25
f 17/164/25 80/167/25 79/165/25
f 9/157/25 74/160/25 73/158/25
f 1/152/25 72/155/25 70/153/25
f 39/145/25 88/148/25 86/146/25
f 31/139/25 85/141/25 83/138/25
f 84/143/25 85/141/25 33/140/25
f 89/172/25 84/143/25 37/144/25
f 15/163/25 79/165/25 90/173/25
f 15/163/25 90/173/25 75/162/25
f 86/146/25 89/172/25 37/144/25
f 11/159/25 75/162/25 74/160/25
f 7/53/25 73/158/25 76/54/25
f 92/174/25 87/151/25 45/150/25
f 70/153/25 92/174/25 45/150/25
f 53/56/26 70/175/26 72/57/27
f 52/58/27 72/57/27 71/59/28
f 69/60/28 71/59/28 76/61/29
f 60/62/29 76/61/29 73/63/30
f 73/63/30 74/66/31 61/65/31
f 74/66/31 75/68/14 66/67/14
f 75/68/14 90/70/15 65/69/15
f 90/70/15 79/72/16 63/71/16
f 79/72/16 80/74/17 64/73/17
f 80/74/17 77/76/18 68/75/18
f 77/76/18 78/176/32 59/77/32
f 57/78/33 82/177/33 81/79/7
f 81/79/7 91/178/8 56/81/8
f 56/81/8 91/178/8 83/82/9
f 54/83/9 83/82/9 85/84/10
f 55/85/10 85/84/10 84/86/11
f 67/87/11 84/86/11 89/88/34
f 47/89/34 89/88/34 86/90/35
f 49/91/35 86/90/35 88/92/36
f 48/93/36 88/92/36 87/94/37
f 51/95/37 87/94/37 92/96/38
f 50/97/38 92/96/38 70/98/26
f 68/179/23 59/180/23 24/181/23
f 24/181/23 22/182/23 68/179/23
f 22/182/23 20/102/23 64/101/23
f 20/102/23 18/183/23 63/100/23
f 18/183/23 16/184/23 63/100/23
f 16/184/23 14/108/23 66/107/23
f 16/184/23 66/107/23 65/185/23
f 22/182/23 64/101/23 68/179/23
f 16/184/23 65/185/23 63/100/23
f 81/105/25 82/186/25 25/187/25
f 25/187/25 27/188/25 81/105/25
f 27/188/25 29/103/25 81/105/25
