# Blender 4.5.7 LTS
# www.blender.org
mtllib Tunnel_rotate.mtl
o 回転灯
v -0.000000 4.802483 -0.278716
v -0.000000 5.341551 -0.278716
v 0.197082 4.802483 -0.197082
v 0.197082 5.341551 -0.197082
v 0.278716 4.802483 0.000000
v 0.278716 5.341551 0.000000
v 0.197082 4.802483 0.197082
v 0.197082 5.341551 0.197082
v -0.000000 4.802483 0.278716
v -0.000000 5.341551 0.278716
v -0.197082 4.802483 0.197082
v -0.197082 5.341551 0.197082
v -0.278716 4.802483 0.000000
v -0.278716 5.341551 0.000000
v -0.197082 4.802483 -0.197082
v -0.197082 5.341551 -0.197082
vn 0.3827 -0.0000 -0.9239
vn 0.9239 -0.0000 -0.3827
vn 0.9239 -0.0000 0.3827
vn 0.3827 -0.0000 0.9239
vn -0.3827 -0.0000 0.9239
vn -0.9239 -0.0000 0.3827
vn -0.0000 1.0000 -0.0000
vn -0.9239 -0.0000 -0.3827
vn -0.3827 -0.0000 -0.9239
vn -0.0000 -1.0000 -0.0000
vt 1.000000 0.500000
vt 1.000000 1.000000
vt 0.875000 1.000000
vt 0.875000 0.500000
vt 0.750000 1.000000
vt 0.750000 0.500000
vt 0.625000 1.000000
vt 0.625000 0.500000
vt 0.500000 1.000000
vt 0.500000 0.500000
vt 0.375000 1.000000
vt 0.375000 0.500000
vt 0.250000 1.000000
vt 0.250000 0.500000
vt 0.419706 0.419706
vt 0.250000 0.490000
vt 0.080294 0.419706
vt 0.010000 0.250000
vt 0.080294 0.080294
vt 0.250000 0.010000
vt 0.419706 0.080294
vt 0.490000 0.250000
vt 0.125000 1.000000
vt 0.125000 0.500000
vt 0.000000 1.000000
vt 0.000000 0.500000
vt 0.919706 0.080294
vt 0.580294 0.080294
vt 0.580294 0.419706
vt 0.750000 0.490000
vt 0.919706 0.419706
vt 0.990000 0.250000
vt 0.750000 0.010000
vt 0.510000 0.250000
s 0
f 1/1/1 2/2/1 4/3/1 3/4/1
f 3/4/2 4/3/2 6/5/2 5/6/2
f 5/6/3 6/5/3 8/7/3 7/8/3
f 7/8/4 8/7/4 10/9/4 9/10/4
f 9/10/5 10/9/5 12/11/5 11/12/5
f 11/12/6 12/11/6 14/13/6 13/14/6
f 4/15/7 2/16/7 16/17/7 14/18/7 12/19/7 10/20/7 8/21/7 6/22/7
f 13/14/8 14/13/8 16/23/8 15/24/8
f 15/24/9 16/23/9 2/25/9 1/26/9
f 7/27/10 11/28/10 15/29/10
f 15/29/10 1/30/10 3/31/10
f 3/31/10 5/32/10 7/27/10
f 7/27/10 9/33/10 11/28/10
f 11/28/10 13/34/10 15/29/10
f 15/29/10 3/31/10 7/27/10
