# Blender 4.5.7 LTS
# www.blender.org
mtllib Tunnel_guide.mtl
o 誘導灯
v -5.472034 -0.042132 20.191547
v -5.472034 0.042132 20.191547
v -5.472034 -0.042132 -20.191547
v -5.472034 0.042132 -20.191547
v -5.089267 -0.042132 20.191547
v -5.089267 0.042132 20.191547
v -5.089267 -0.042132 -20.191547
v -5.089267 0.042132 -20.191547
v 5.472034 -0.042132 20.191547
v 5.472034 0.042132 20.191547
v 5.472034 -0.042132 -20.191547
v 5.472034 0.042132 -20.191547
v 5.089267 -0.042132 20.191547
v 5.089267 0.042132 20.191547
v 5.089267 -0.042132 -20.191547
v 5.089267 0.042132 -20.191547
vn -1.0000 -0.0000 -0.0000
vn -0.0000 -0.0000 -1.0000
vn 1.0000 -0.0000 -0.0000
vn -0.0000 -0.0000 1.0000
vn -0.0000 -1.0000 -0.0000
vn -0.0000 1.0000 -0.0000
vt 0.375000 0.000000
vt 0.625000 0.000000
vt 0.625000 0.250000
vt 0.375000 0.250000
vt 0.625000 0.500000
vt 0.375000 0.500000
vt 0.625000 0.750000
vt 0.375000 0.750000
vt 0.625000 1.000000
vt 0.375000 1.000000
vt 0.125000 0.500000
vt 0.125000 0.750000
vt 0.875000 0.500000
vt 0.875000 0.750000
s 0
usemtl white
f 1/1/1 2/2/1 4/3/1 3/4/1
f 3/4/2 4/3/2 8/5/2 7/6/2
f 7/6/3 8/5/3 6/7/3 5/8/3
f 5/8/4 6/7/4 2/9/4 1/10/4
f 3/11/5 7/6/5 5/8/5 1/12/5
f 8/5/6 4/13/6 2/14/6 6/7/6
f 9/1/3 11/4/3 12/3/3 10/2/3
f 11/4/2 15/6/2 16/5/2 12/3/2
f 15/6/1 13/8/1 14/7/1 16/5/1
f 13/8/4 9/10/4 10/9/4 14/7/4
f 11/11/5 9/12/5 13/8/5 15/6/5
f 16/5/6 14/7/6 10/14/6 12/13/6
