# Blender 4.5.7 LTS
# www.blender.org
mtllib Tunnel_road.mtl
o RoadPath
v -0.226244 -2.011029 -20.191547
v 0.226244 -2.011029 -20.191547
v -0.226244 -2.011029 20.191547
v 0.226244 -2.011029 20.191547
v -5.656100 -2.011029 -20.191547
v -5.203612 -2.011029 -20.191547
v -5.656100 -2.011029 20.191547
v -5.203612 -2.011029 20.191547
v 5.203612 -2.011029 -20.191547
v 5.656100 -2.011029 -20.191547
v 5.203612 -2.011029 20.191547
v 5.656100 -2.011029 20.191547
v -5.656100 -2.056278 -20.191547
v 5.656100 -2.056278 -20.191547
v -5.656100 -2.056278 20.191547
v 5.656100 -2.056278 20.191547
vn 0.0000 1.0000 0.0000
vn 0.0000 -1.0000 0.0000
s 1
usemtl Road_Material_ASPHALT
f 14//1 13//1 15//1
f 14//1 15//1 16//1
f 14//2 15//2 13//2
f 14//2 16//2 15//2
usemtl Road_LaneLine
f 2//1 1//1 3//1
f 2//1 3//1 4//1
f 6//1 5//1 7//1
f 6//1 7//1 8//1
f 10//1 9//1 11//1
f 10//1 11//1 12//1
f 2//2 3//2 1//2
f 2//2 4//2 3//2
f 6//2 7//2 5//2
f 6//2 8//2 7//2
f 10//2 11//2 9//2
f 10//2 12//2 11//2
