{
	"asset":{
		"generator":"Khronos glTF Blender I/O v5.2.39",
		"version":"2.0"
	},
	"scene":0,
	"scenes":[
		{
			"name":"Scene",
			"nodes":[
				9
			]
		}
	],
	"nodes":[
		{
			"mesh":0,
			"name":"Elevator_L"
		},
		{
			"mesh":1,
			"name":"Elevator_R"
		},
		{
			"children":[
				0,
				1
			],
			"mesh":2,
			"name":"Tail"
		},
		{
			"mesh":3,
			"name":"Wing2_L"
		},
		{
			"children":[
				3
			],
			"mesh":4,
			"name":"Wing1_L"
		},
		{
			"children":[
				4
			],
			"mesh":5,
			"name":"Wing_L"
		},
		{
			"mesh":6,
			"name":"Wing2_R"
		},
		{
			"children":[
				6
			],
			"mesh":7,
			"name":"Wing1_R"
		},
		{
			"children":[
				7
			],
			"mesh":8,
			"name":"Wing_R"
		},
		{
			"children":[
				2,
				5,
				8
			],
			"mesh":9,
			"name":"Fuse"
		}
	],
	"materials":[
		{
			"doubleSided":true,
			"name":"\u30de\u30c6\u30ea\u30a2\u30eb.004",
			"pbrMetallicRoughness":{
				"baseColorTexture":{
					"index":0
				},
				"metallicFactor":0,
				"roughnessFactor":0.5
			}
		},
		{
			"doubleSided":true,
			"name":"\u30de\u30c6\u30ea\u30a2\u30eb.003",
			"pbrMetallicRoughness":{
				"baseColorTexture":{
					"index":0
				},
				"metallicFactor":0,
				"roughnessFactor":0.5
			}
		},
		{
			"doubleSided":true,
			"name":"\u30de\u30c6\u30ea\u30a2\u30eb",
			"pbrMetallicRoughness":{
				"baseColorTexture":{
					"index":0
				},
				"metallicFactor":0,
				"roughnessFactor":0.5
			}
		}
	],
	"meshes":[
		{
			"name":"\u7acb\u65b9\u4f53.015",
			"primitives":[
				{
					"attributes":{
						"POSITION":0,
						"NORMAL":1,
						"TEXCOORD_0":2
					},
					"indices":3,
					"material":0
				}
			]
		},
		{
			"name":"\u7acb\u65b9\u4f53.002",
			"primitives":[
				{
					"attributes":{
						"POSITION":4,
						"NORMAL":5,
						"TEXCOORD_0":6
					},
					"indices":7,
					"material":1
				},
				{
					"attributes":{
						"POSITION":8,
						"NORMAL":9,
						"TEXCOORD_0":10
					},
					"indices":11,
					"material":2
				}
			]
		},
		{
			"name":"\u5e73\u9762",
			"primitives":[
				{
					"attributes":{
						"POSITION":12,
						"NORMAL":13,
						"TEXCOORD_0":14
					},
					"indices":15
				}
			]
		},
		{
			"name":"\u7acb\u65b9\u4f53.014",
			"primitives":[
				{
					"attributes":{
						"POSITION":16,
						"NORMAL":17,
						"TEXCOORD_0":18
					},
					"indices":19,
					"material":0
				}
			]
		},
		{
			"name":"\u7acb\u65b9\u4f53.013",
			"primitives":[
				{
					"attributes":{
						"POSITION":20,
						"NORMAL":21,
						"TEXCOORD_0":22
					},
					"indices":23,
					"material":1
				}
			]
		},
		{
			"name":"\u7acb\u65b9\u4f53.012",
			"primitives":[
				{
					"attributes":{
						"POSITION":24,
						"NORMAL":25,
						"TEXCOORD_0":26
					},
					"indices":27,
					"material":1
				}
			]
		},
		{
			"name":"\u7acb\u65b9\u4f53.010",
			"primitives":[
				{
					"attributes":{
						"POSITION":28,
						"NORMAL":29,
						"TEXCOORD_0":30
					},
					"indices":31,
					"material":0
				}
			]
		},
		{
			"name":"\u7acb\u65b9\u4f53.011",
			"primitives":[
				{
					"attributes":{
						"POSITION":32,
						"NORMAL":33,
						"TEXCOORD_0":34
					},
					"indices":35,
					"material":1
				}
			]
		},
		{
			"name":"\u7acb\u65b9\u4f53.007",
			"primitives":[
				{
					"attributes":{
						"POSITION":36,
						"NORMAL":37,
						"TEXCOORD_0":38
					},
					"indices":39,
					"material":1
				}
			]
		},
		{
			"name":"\u5186\u67f1.001",
			"primitives":[
				{
					"attributes":{
						"POSITION":40,
						"NORMAL":41,
						"TEXCOORD_0":42
					},
					"indices":43,
					"material":0
				}
			]
		}
	],
	"textures":[
		{
			"sampler":0,
			"source":0
		}
	],
	"images":[
		{
			"mimeType":"image/png",
			"name":"m21",
			"uri":"m21.png"
		}
	],
	"accessors":[
		{
			"bufferView":0,
			"componentType":5126,
			"count":28,
			"max":[
				-0.8633870482444763,
				0.027210667729377747,
				15.033591270446777
			],
			"min":[
				-2.530256986618042,
				-0.0056100934743881226,
				12.347472190856934
			],
			"type":"VEC3"
		},
		{
			"bufferView":1,
			"componentType":5126,
			"count":28,
			"type":"VEC3"
		},
		{
			"bufferView":2,
			"componentType":5126,
			"count":28,
			"type":"VEC2"
		},
		{
			"bufferView":3,
			"componentType":5123,
			"count":48,
			"type":"SCALAR"
		},
		{
			"bufferView":4,
			"componentType":5126,
			"count":22,
			"max":[
				2.530256986618042,
				0.027210667729377747,
				15.033591270446777
			],
			"min":[
				0.8633870482444763,
				-0.0056100934743881226,
				12.347472190856934
			],
			"type":"VEC3"
		},
		{
			"bufferView":5,
			"componentType":5126,
			"count":22,
			"type":"VEC3"
		},
		{
			"bufferView":6,
			"componentType":5126,
			"count":22,
			"type":"VEC2"
		},
		{
			"bufferView":7,
			"componentType":5123,
			"count":36,
			"type":"SCALAR"
		},
		{
			"bufferView":8,
			"componentType":5126,
			"count":8,
			"max":[
				2.530256986618042,
				0.010800495743751526,
				15.033591270446777
			],
			"min":[
				0.8633870482444763,
				-0.0056100934743881226,
				12.347472190856934
			],
			"type":"VEC3"
		},
		{
			"bufferView":9,
			"componentType":5126,
			"count":8,
			"type":"VEC3"
		},
		{
			"bufferView":10,
			"componentType":5126,
			"count":8,
			"type":"VEC2"
		},
		{
			"bufferView":11,
			"componentType":5123,
			"count":12,
			"type":"SCALAR"
		},
		{
			"bufferView":12,
			"componentType":5126,
			"count":4,
			"max":[
				0.08061110973358154,
				0,
				0.08061110973358154
			],
			"min":[
				-0.08061110973358154,
				0,
				-0.08061110973358154
			],
			"type":"VEC3"
		},
		{
			"bufferView":13,
			"componentType":5126,
			"count":4,
			"type":"VEC3"
		},
		{
			"bufferView":14,
			"componentType":5126,
			"count":4,
			"type":"VEC2"
		},
		{
			"bufferView":15,
			"componentType":5123,
			"count":6,
			"type":"SCALAR"
		},
		{
			"bufferView":16,
			"componentType":5126,
			"count":12,
			"max":[
				-3.113555908203125,
				0.11826494336128235,
				12.132582664489746
			],
			"min":[
				-4.503026008605957,
				0.06756733357906342,
				8.92719554901123
			],
			"type":"VEC3"
		},
		{
			"bufferView":17,
			"componentType":5126,
			"count":12,
			"type":"VEC3"
		},
		{
			"bufferView":18,
			"componentType":5126,
			"count":12,
			"type":"VEC2"
		},
		{
			"bufferView":19,
			"componentType":5123,
			"count":12,
			"type":"SCALAR"
		},
		{
			"bufferView":20,
			"componentType":5126,
			"count":18,
			"max":[
				-1.5821324586868286,
				0.13644051551818848,
				12.132582664489746
			],
			"min":[
				-3.1140189170837402,
				0.04938331991434097,
				6.6292548179626465
			],
			"type":"VEC3"
		},
		{
			"bufferView":21,
			"componentType":5126,
			"count":18,
			"type":"VEC3"
		},
		{
			"bufferView":22,
			"componentType":5126,
			"count":18,
			"type":"VEC2"
		},
		{
			"bufferView":23,
			"componentType":5123,
			"count":24,
			"type":"SCALAR"
		},
		{
			"bufferView":24,
			"componentType":5126,
			"count":48,
			"max":[
				-0.9446890950202942,
				0.13644051551818848,
				12.132582664489746
			],
			"min":[
				-2.117445468902588,
				0.008985236287117004,
				4.098277568817139
			],
			"type":"VEC3"
		},
		{
			"bufferView":25,
			"componentType":5126,
			"count":48,
			"type":"VEC3"
		},
		{
			"bufferView":26,
			"componentType":5126,
			"count":48,
			"type":"VEC2"
		},
		{
			"bufferView":27,
			"componentType":5123,
			"count":84,
			"type":"SCALAR"
		},
		{
			"bufferView":28,
			"componentType":5126,
			"count":12,
			"max":[
				4.503026008605957,
				0.11826494336128235,
				12.132582664489746
			],
			"min":[
				3.113555908203125,
				0.06756733357906342,
				8.92719554901123
			],
			"type":"VEC3"
		},
		{
			"bufferView":29,
			"componentType":5126,
			"count":12,
			"type":"VEC3"
		},
		{
			"bufferView":30,
			"componentType":5126,
			"count":12,
			"type":"VEC2"
		},
		{
			"bufferView":31,
			"componentType":5123,
			"count":12,
			"type":"SCALAR"
		},
		{
			"bufferView":32,
			"componentType":5126,
			"count":18,
			"max":[
				3.1140189170837402,
				0.13644051551818848,
				12.132582664489746
			],
			"min":[
				1.5821324586868286,
				0.04938331991434097,
				6.6292548179626465
			],
			"type":"VEC3"
		},
		{
			"bufferView":33,
			"componentType":5126,
			"count":18,
			"type":"VEC3"
		},
		{
			"bufferView":34,
			"componentType":5126,
			"count":18,
			"type":"VEC2"
		},
		{
			"bufferView":35,
			"componentType":5123,
			"count":24,
			"type":"SCALAR"
		},
		{
			"bufferView":36,
			"componentType":5126,
			"count":48,
			"max":[
				2.117445468902588,
				0.13644051551818848,
				12.132582664489746
			],
			"min":[
				0.9446890950202942,
				0.008985236287117004,
				4.098277568817139
			],
			"type":"VEC3"
		},
		{
			"bufferView":37,
			"componentType":5126,
			"count":48,
			"type":"VEC3"
		},
		{
			"bufferView":38,
			"componentType":5126,
			"count":48,
			"type":"VEC2"
		},
		{
			"bufferView":39,
			"componentType":5123,
			"count":84,
			"type":"SCALAR"
		},
		{
			"bufferView":40,
			"componentType":5126,
			"count":912,
			"max":[
				0.9570635557174683,
				2.6448519229888916,
				15.041980743408203
			],
			"min":[
				-0.9481813311576843,
				-0.9418222904205322,
				-0.24943435192108154
			],
			"type":"VEC3"
		},
		{
			"bufferView":41,
			"componentType":5126,
			"count":912,
			"type":"VEC3"
		},
		{
			"bufferView":42,
			"componentType":5126,
			"count":912,
			"type":"VEC2"
		},
		{
			"bufferView":43,
			"componentType":5123,
			"count":2754,
			"type":"SCALAR"
		}
	],
	"bufferViews":[
		{
			"buffer":0,
			"byteLength":336,
			"byteOffset":0,
			"target":34962
		},
		{
			"buffer":0,
			"byteLength":336,
			"byteOffset":336,
			"target":34962
		},
		{
			"buffer":0,
			"byteLength":224,
			"byteOffset":672,
			"target":34962
		},
		{
			"buffer":0,
			"byteLength":96,
			"byteOffset":896,
			"target":34963
		},
		{
			"buffer":0,
			"byteLength":264,
			"byteOffset":992,
			"target":34962
		},
		{
			"buffer":0,
			"byteLength":264,
			"byteOffset":1256,
			"target":34962
		},
		{
			"buffer":0,
			"byteLength":176,
			"byteOffset":1520,
			"target":34962
		},
		{
			"buffer":0,
			"byteLength":72,
			"byteOffset":1696,
			"target":34963
		},
		{
			"buffer":0,
			"byteLength":96,
			"byteOffset":1768,
			"target":34962
		},
		{
			"buffer":0,
			"byteLength":96,
			"byteOffset":1864,
			"target":34962
		},
		{
			"buffer":0,
			"byteLength":64,
			"byteOffset":1960,
			"target":34962
		},
		{
			"buffer":0,
			"byteLength":24,
			"byteOffset":2024,
			"target":34963
		},
		{
			"buffer":0,
			"byteLength":48,
			"byteOffset":2048,
			"target":34962
		},
		{
			"buffer":0,
			"byteLength":48,
			"byteOffset":2096,
			"target":34962
		},
		{
			"buffer":0,
			"byteLength":32,
			"byteOffset":2144,
			"target":34962
		},
		{
			"buffer":0,
			"byteLength":12,
			"byteOffset":2176,
			"target":34963
		},
		{
			"buffer":0,
			"byteLength":144,
			"byteOffset":2188,
			"target":34962
		},
		{
			"buffer":0,
			"byteLength":144,
			"byteOffset":2332,
			"target":34962
		},
		{
			"buffer":0,
			"byteLength":96,
			"byteOffset":2476,
			"target":34962
		},
		{
			"buffer":0,
			"byteLength":24,
			"byteOffset":2572,
			"target":34963
		},
		{
			"buffer":0,
			"byteLength":216,
			"byteOffset":2596,
			"target":34962
		},
		{
			"buffer":0,
			"byteLength":216,
			"byteOffset":2812,
			"target":34962
		},
		{
			"buffer":0,
			"byteLength":144,
			"byteOffset":3028,
			"target":34962
		},
		{
			"buffer":0,
			"byteLength":48,
			"byteOffset":3172,
			"target":34963
		},
		{
			"buffer":0,
			"byteLength":576,
			"byteOffset":3220,
			"target":34962
		},
		{
			"buffer":0,
			"byteLength":576,
			"byteOffset":3796,
			"target":34962
		},
		{
			"buffer":0,
			"byteLength":384,
			"byteOffset":4372,
			"target":34962
		},
		{
			"buffer":0,
			"byteLength":168,
			"byteOffset":4756,
			"target":34963
		},
		{
			"buffer":0,
			"byteLength":144,
			"byteOffset":4924,
			"target":34962
		},
		{
			"buffer":0,
			"byteLength":144,
			"byteOffset":5068,
			"target":34962
		},
		{
			"buffer":0,
			"byteLength":96,
			"byteOffset":5212,
			"target":34962
		},
		{
			"buffer":0,
			"byteLength":24,
			"byteOffset":5308,
			"target":34963
		},
		{
			"buffer":0,
			"byteLength":216,
			"byteOffset":5332,
			"target":34962
		},
		{
			"buffer":0,
			"byteLength":216,
			"byteOffset":5548,
			"target":34962
		},
		{
			"buffer":0,
			"byteLength":144,
			"byteOffset":5764,
			"target":34962
		},
		{
			"buffer":0,
			"byteLength":48,
			"byteOffset":5908,
			"target":34963
		},
		{
			"buffer":0,
			"byteLength":576,
			"byteOffset":5956,
			"target":34962
		},
		{
			"buffer":0,
			"byteLength":576,
			"byteOffset":6532,
			"target":34962
		},
		{
			"buffer":0,
			"byteLength":384,
			"byteOffset":7108,
			"target":34962
		},
		{
			"buffer":0,
			"byteLength":168,
			"byteOffset":7492,
			"target":34963
		},
		{
			"buffer":0,
			"byteLength":10944,
			"byteOffset":7660,
			"target":34962
		},
		{
			"buffer":0,
			"byteLength":10944,
			"byteOffset":18604,
			"target":34962
		},
		{
			"buffer":0,
			"byteLength":7296,
			"byteOffset":29548,
			"target":34962
		},
		{
			"buffer":0,
			"byteLength":5508,
			"byteOffset":36844,
			"target":34963
		}
	],
	"samplers":[
		{
			"magFilter":9729,
			"minFilter":9987
		}
	],
	"buffers":[
		{
			"byteLength":42352,
			"uri":"m21.bin"
		}
	]
}
