{
	"asset":{
		"generator":"Khronos glTF Blender I/O v4.5.51",
		"version":"2.0"
	},
	"scene":0,
	"scenes":[
		{
			"name":"Scene",
			"nodes":[
				13
			]
		}
	],
	"nodes":[
		{
			"mesh":0,
			"name":"Elevator_L.001"
		},
		{
			"mesh":1,
			"name":"Elevator_R.001"
		},
		{
			"children":[
				0,
				1
			],
			"mesh":2,
			"name":"Tail.001"
		},
		{
			"mesh":3,
			"name":"Wing2_L.001"
		},
		{
			"children":[
				3
			],
			"mesh":4,
			"name":"Wing1_L.001"
		},
		{
			"children":[
				4
			],
			"mesh":5,
			"name":"Wing_L.001"
		},
		{
			"mesh":6,
			"name":"Wing2_R.001"
		},
		{
			"children":[
				6
			],
			"mesh":7,
			"name":"Wing1_R.001"
		},
		{
			"children":[
				7
			],
			"mesh":8,
			"name":"Wing_R.001"
		},
		{
			"mesh":9,
			"name":"\u5186\u67f1.004"
		},
		{
			"mesh":10,
			"name":"\u5186\u67f1.003"
		},
		{
			"children":[
				10
			],
			"mesh":11,
			"name":"\u5186\u67f1.005"
		},
		{
			"mesh":12,
			"name":"\u7acb\u65b9\u4f53.001"
		},
		{
			"children":[
				2,
				5,
				8,
				9,
				11,
				12
			],
			"mesh":13,
			"name":"Fuse.001"
		}
	],
	"materials":[
		{
			"doubleSided":true,
			"name":"\u30de\u30c6\u30ea\u30a2\u30eb",
			"pbrMetallicRoughness":{
				"baseColorTexture":{
					"index":1
				},
				"metallicFactor":0,
				"roughnessFactor":0.5
			}
		},
		{
			"doubleSided":true,
			"name":"\u30de\u30c6\u30ea\u30a2\u30eb.011",
			"pbrMetallicRoughness":{
				"baseColorTexture":{
					"index":1
				},
				"metallicFactor":0,
				"roughnessFactor":0.5
			}
		},
		{
			"doubleSided":true,
			"name":"\u30de\u30c6\u30ea\u30a2\u30eb.007",
			"pbrMetallicRoughness":{
				"baseColorTexture":{
					"index":1
				},
				"metallicFactor":0,
				"roughnessFactor":0.5
			}
		},
		{
			"doubleSided":true,
			"name":"\u30de\u30c6\u30ea\u30a2\u30eb.009",
			"pbrMetallicRoughness":{
				"baseColorFactor":[
					0,
					0,
					0,
					1
				],
				"metallicFactor":0,
				"roughnessFactor":0.5
			}
		},
		{
			"doubleSided":true,
			"name":"\u30de\u30c6\u30ea\u30a2\u30eb.006",
			"pbrMetallicRoughness":{
				"baseColorFactor":[
					0.800000011920929,
					0.800000011920929,
					0.800000011920929,
					1
				],
				"metallicFactor":0,
				"roughnessFactor":0.5
			}
		},
		{
			"doubleSided":true,
			"name":"\u30de\u30c6\u30ea\u30a2\u30eb.012",
			"pbrMetallicRoughness":{
				"baseColorTexture":{
					"index":1
				},
				"metallicFactor":0,
				"roughnessFactor":0.5
			}
		}
	],
	"meshes":[
		{
			"name":"\u7acb\u65b9\u4f53.008",
			"primitives":[
				{
					"attributes":{
						"POSITION":0,
						"NORMAL":1,
						"TEXCOORD_0":2
					},
					"indices":3,
					"material":0
				},
				{
					"attributes":{
						"POSITION":4,
						"NORMAL":5,
						"TEXCOORD_0":6
					},
					"indices":7,
					"material":1
				},
				{
					"attributes":{
						"POSITION":8,
						"NORMAL":9,
						"TEXCOORD_0":10
					},
					"indices":11,
					"material":2
				}
			]
		},
		{
			"name":"\u7acb\u65b9\u4f53.021",
			"primitives":[
				{
					"attributes":{
						"POSITION":12,
						"NORMAL":13,
						"TEXCOORD_0":14
					},
					"indices":15,
					"material":0
				},
				{
					"attributes":{
						"POSITION":16,
						"NORMAL":17,
						"TEXCOORD_0":18
					},
					"indices":19,
					"material":1
				}
			]
		},
		{
			"name":"\u5e73\u9762.001",
			"primitives":[
				{
					"attributes":{
						"POSITION":20,
						"NORMAL":21,
						"TEXCOORD_0":22
					},
					"indices":23
				}
			]
		},
		{
			"name":"\u7acb\u65b9\u4f53.009",
			"primitives":[
				{
					"attributes":{
						"POSITION":24,
						"NORMAL":25,
						"TEXCOORD_0":26
					},
					"indices":27,
					"material":0
				}
			]
		},
		{
			"name":"\u7acb\u65b9\u4f53.016",
			"primitives":[
				{
					"attributes":{
						"POSITION":28,
						"NORMAL":29,
						"TEXCOORD_0":30
					},
					"indices":31,
					"material":0
				}
			]
		},
		{
			"name":"\u7acb\u65b9\u4f53.017",
			"primitives":[
				{
					"attributes":{
						"POSITION":32,
						"NORMAL":33,
						"TEXCOORD_0":34
					},
					"indices":35,
					"material":0
				}
			]
		},
		{
			"name":"\u7acb\u65b9\u4f53.019",
			"primitives":[
				{
					"attributes":{
						"POSITION":36,
						"NORMAL":37,
						"TEXCOORD_0":38
					},
					"indices":39,
					"material":0
				}
			]
		},
		{
			"name":"\u7acb\u65b9\u4f53.018",
			"primitives":[
				{
					"attributes":{
						"POSITION":40,
						"NORMAL":41,
						"TEXCOORD_0":42
					},
					"indices":43,
					"material":0
				}
			]
		},
		{
			"name":"\u7acb\u65b9\u4f53.020",
			"primitives":[
				{
					"attributes":{
						"POSITION":44,
						"NORMAL":45,
						"TEXCOORD_0":46
					},
					"indices":47,
					"material":0
				}
			]
		},
		{
			"name":"\u5186\u67f1.007",
			"primitives":[
				{
					"attributes":{
						"POSITION":48,
						"NORMAL":49,
						"TEXCOORD_0":50
					},
					"indices":51,
					"material":3
				},
				{
					"attributes":{
						"POSITION":52,
						"NORMAL":53,
						"TEXCOORD_0":54
					},
					"indices":55,
					"material":4
				}
			]
		},
		{
			"name":"\u5186\u67f1.006",
			"primitives":[
				{
					"attributes":{
						"POSITION":56,
						"NORMAL":57,
						"TEXCOORD_0":58
					},
					"indices":51,
					"material":3
				},
				{
					"attributes":{
						"POSITION":59,
						"NORMAL":60,
						"TEXCOORD_0":61
					},
					"indices":55,
					"material":4
				}
			]
		},
		{
			"name":"\u5186\u67f1.008",
			"primitives":[
				{
					"attributes":{
						"POSITION":62,
						"NORMAL":63,
						"TEXCOORD_0":64
					},
					"indices":65,
					"material":1
				}
			]
		},
		{
			"name":"\u7acb\u65b9\u4f53.022",
			"primitives":[
				{
					"attributes":{
						"POSITION":66,
						"NORMAL":67,
						"TEXCOORD_0":68
					},
					"indices":69,
					"material":1
				}
			]
		},
		{
			"name":"\u5186\u67f1.009",
			"primitives":[
				{
					"attributes":{
						"POSITION":70,
						"NORMAL":71,
						"TEXCOORD_0":72
					},
					"indices":73,
					"material":5
				}
			]
		}
	],
	"textures":[
		{
			"sampler":0,
			"source":0
		},
		{
			"sampler":0,
			"source":1
		}
	],
	"images":[
		{
			"mimeType":"image/png",
			"name":"m21",
			"uri":"m21.png"
		},
		{
			"mimeType":"image/png",
			"name":"m21wg",
			"uri":"m21wg.png"
		}
	],
	"accessors":[
		{
			"bufferView":0,
			"componentType":5126,
			"count":18,
			"max":[
				-0.8633870482444763,
				0.027210667729377747,
				7.684534549713135
			],
			"min":[
				-2.530256986618042,
				-0.0056100934743881226,
				4.998415470123291
			],
			"type":"VEC3"
		},
		{
			"bufferView":1,
			"componentType":5126,
			"count":18,
			"type":"VEC3"
		},
		{
			"bufferView":2,
			"componentType":5126,
			"count":18,
			"type":"VEC2"
		},
		{
			"bufferView":3,
			"componentType":5123,
			"count":30,
			"type":"SCALAR"
		},
		{
			"bufferView":4,
			"componentType":5126,
			"count":4,
			"max":[
				-0.8633870482444763,
				-0.0056100934743881226,
				7.684534549713135
			],
			"min":[
				-2.530256986618042,
				-0.0056100934743881226,
				4.998415470123291
			],
			"type":"VEC3"
		},
		{
			"bufferView":5,
			"componentType":5126,
			"count":4,
			"type":"VEC3"
		},
		{
			"bufferView":6,
			"componentType":5126,
			"count":4,
			"type":"VEC2"
		},
		{
			"bufferView":7,
			"componentType":5123,
			"count":6,
			"type":"SCALAR"
		},
		{
			"bufferView":8,
			"componentType":5126,
			"count":6,
			"max":[
				-0.8633870482444763,
				0.027210667729377747,
				6.350711345672607
			],
			"min":[
				-0.9481741786003113,
				-0.0056100934743881226,
				4.998415470123291
			],
			"type":"VEC3"
		},
		{
			"bufferView":9,
			"componentType":5126,
			"count":6,
			"type":"VEC3"
		},
		{
			"bufferView":10,
			"componentType":5126,
			"count":6,
			"type":"VEC2"
		},
		{
			"bufferView":11,
			"componentType":5123,
			"count":12,
			"type":"SCALAR"
		},
		{
			"bufferView":12,
			"componentType":5126,
			"count":22,
			"max":[
				2.530256986618042,
				0.027210667729377747,
				7.684534549713135
			],
			"min":[
				0.8633870482444763,
				-0.0056100934743881226,
				4.998415470123291
			],
			"type":"VEC3"
		},
		{
			"bufferView":13,
			"componentType":5126,
			"count":22,
			"type":"VEC3"
		},
		{
			"bufferView":14,
			"componentType":5126,
			"count":22,
			"type":"VEC2"
		},
		{
			"bufferView":15,
			"componentType":5123,
			"count":36,
			"type":"SCALAR"
		},
		{
			"bufferView":16,
			"componentType":5126,
			"count":8,
			"max":[
				2.530256986618042,
				0.010800495743751526,
				7.684534549713135
			],
			"min":[
				0.8633870482444763,
				-0.0056100934743881226,
				4.998415470123291
			],
			"type":"VEC3"
		},
		{
			"bufferView":17,
			"componentType":5126,
			"count":8,
			"type":"VEC3"
		},
		{
			"bufferView":18,
			"componentType":5126,
			"count":8,
			"type":"VEC2"
		},
		{
			"bufferView":19,
			"componentType":5123,
			"count":12,
			"type":"SCALAR"
		},
		{
			"bufferView":20,
			"componentType":5126,
			"count":4,
			"max":[
				0.08061110973358154,
				0,
				-7.2684454917907715
			],
			"min":[
				-0.08061110973358154,
				0,
				-7.429667949676514
			],
			"type":"VEC3"
		},
		{
			"bufferView":21,
			"componentType":5126,
			"count":4,
			"type":"VEC3"
		},
		{
			"bufferView":22,
			"componentType":5126,
			"count":4,
			"type":"VEC2"
		},
		{
			"bufferView":23,
			"componentType":5123,
			"count":6,
			"type":"SCALAR"
		},
		{
			"bufferView":24,
			"componentType":5126,
			"count":12,
			"max":[
				-3.113555908203125,
				0.11826494336128235,
				4.7835259437561035
			],
			"min":[
				-4.503026008605957,
				0.06756733357906342,
				1.578138828277588
			],
			"type":"VEC3"
		},
		{
			"bufferView":25,
			"componentType":5126,
			"count":12,
			"type":"VEC3"
		},
		{
			"bufferView":26,
			"componentType":5126,
			"count":12,
			"type":"VEC2"
		},
		{
			"bufferView":27,
			"componentType":5123,
			"count":12,
			"type":"SCALAR"
		},
		{
			"bufferView":28,
			"componentType":5126,
			"count":18,
			"max":[
				-1.5821324586868286,
				0.13644051551818848,
				4.7835259437561035
			],
			"min":[
				-3.1140189170837402,
				0.04938331991434097,
				-0.7198019027709961
			],
			"type":"VEC3"
		},
		{
			"bufferView":29,
			"componentType":5126,
			"count":18,
			"type":"VEC3"
		},
		{
			"bufferView":30,
			"componentType":5126,
			"count":18,
			"type":"VEC2"
		},
		{
			"bufferView":31,
			"componentType":5123,
			"count":24,
			"type":"SCALAR"
		},
		{
			"bufferView":32,
			"componentType":5126,
			"count":48,
			"max":[
				-0.9446890950202942,
				0.13644051551818848,
				4.7835259437561035
			],
			"min":[
				-2.117445468902588,
				0.008985236287117004,
				-3.250779151916504
			],
			"type":"VEC3"
		},
		{
			"bufferView":33,
			"componentType":5126,
			"count":48,
			"type":"VEC3"
		},
		{
			"bufferView":34,
			"componentType":5126,
			"count":48,
			"type":"VEC2"
		},
		{
			"bufferView":35,
			"componentType":5123,
			"count":84,
			"type":"SCALAR"
		},
		{
			"bufferView":36,
			"componentType":5126,
			"count":12,
			"max":[
				4.503026008605957,
				0.11826494336128235,
				4.7835259437561035
			],
			"min":[
				3.113555908203125,
				0.06756733357906342,
				1.578138828277588
			],
			"type":"VEC3"
		},
		{
			"bufferView":37,
			"componentType":5126,
			"count":12,
			"type":"VEC3"
		},
		{
			"bufferView":38,
			"componentType":5126,
			"count":12,
			"type":"VEC2"
		},
		{
			"bufferView":39,
			"componentType":5123,
			"count":12,
			"type":"SCALAR"
		},
		{
			"bufferView":40,
			"componentType":5126,
			"count":18,
			"max":[
				3.1140189170837402,
				0.13644051551818848,
				4.7835259437561035
			],
			"min":[
				1.5821324586868286,
				0.04938331991434097,
				-0.7198019027709961
			],
			"type":"VEC3"
		},
		{
			"bufferView":41,
			"componentType":5126,
			"count":18,
			"type":"VEC3"
		},
		{
			"bufferView":42,
			"componentType":5126,
			"count":18,
			"type":"VEC2"
		},
		{
			"bufferView":43,
			"componentType":5123,
			"count":24,
			"type":"SCALAR"
		},
		{
			"bufferView":44,
			"componentType":5126,
			"count":48,
			"max":[
				2.117445468902588,
				0.13644051551818848,
				4.7835259437561035
			],
			"min":[
				0.9446890950202942,
				0.008985236287117004,
				-3.250779151916504
			],
			"type":"VEC3"
		},
		{
			"bufferView":45,
			"componentType":5126,
			"count":48,
			"type":"VEC3"
		},
		{
			"bufferView":46,
			"componentType":5126,
			"count":48,
			"type":"VEC2"
		},
		{
			"bufferView":47,
			"componentType":5123,
			"count":84,
			"type":"SCALAR"
		},
		{
			"bufferView":48,
			"componentType":5126,
			"count":384,
			"max":[
				2.3134729862213135,
				-1.0246821641921997,
				1.2086844444274902
			],
			"min":[
				-2.3134729862213135,
				-2.01509690284729,
				0.31897878646850586
			],
			"type":"VEC3"
		},
		{
			"bufferView":49,
			"componentType":5126,
			"count":384,
			"type":"VEC3"
		},
		{
			"bufferView":50,
			"componentType":5126,
			"count":384,
			"type":"VEC2"
		},
		{
			"bufferView":51,
			"componentType":5123,
			"count":744,
			"type":"SCALAR"
		},
		{
			"bufferView":52,
			"componentType":5126,
			"count":192,
			"max":[
				2.3134729862213135,
				-1.1413428783416748,
				1.1038851737976074
			],
			"min":[
				-2.3134729862213135,
				-1.8984360694885254,
				0.42377662658691406
			],
			"type":"VEC3"
		},
		{
			"bufferView":53,
			"componentType":5126,
			"count":192,
			"type":"VEC3"
		},
		{
			"bufferView":54,
			"componentType":5126,
			"count":192,
			"type":"VEC2"
		},
		{
			"bufferView":55,
			"componentType":5123,
			"count":384,
			"type":"SCALAR"
		},
		{
			"bufferView":56,
			"componentType":5126,
			"count":384,
			"max":[
				0.22338104248046875,
				-1.0322712659835815,
				-3.633941888809204
			],
			"min":[
				-0.22338104248046875,
				-2.022686004638672,
				-4.523647308349609
			],
			"type":"VEC3"
		},
		{
			"bufferView":57,
			"componentType":5126,
			"count":384,
			"type":"VEC3"
		},
		{
			"bufferView":58,
			"componentType":5126,
			"count":384,
			"type":"VEC2"
		},
		{
			"bufferView":59,
			"componentType":5126,
			"count":192,
			"max":[
				0.22338104248046875,
				-1.1489319801330566,
				-3.7387404441833496
			],
			"min":[
				-0.22338104248046875,
				-1.9060251712799072,
				-4.418848991394043
			],
			"type":"VEC3"
		},
		{
			"bufferView":60,
			"componentType":5126,
			"count":192,
			"type":"VEC3"
		},
		{
			"bufferView":61,
			"componentType":5126,
			"count":192,
			"type":"VEC2"
		},
		{
			"bufferView":62,
			"componentType":5126,
			"count":48,
			"max":[
				0.09578001499176025,
				-0.7990046143531799,
				-4.304656028747559
			],
			"min":[
				-0.09578001499176025,
				-1.7919979095458984,
				-4.496216297149658
			],
			"type":"VEC3"
		},
		{
			"bufferView":63,
			"componentType":5126,
			"count":48,
			"type":"VEC3"
		},
		{
			"bufferView":64,
			"componentType":5126,
			"count":48,
			"type":"VEC2"
		},
		{
			"bufferView":65,
			"componentType":5123,
			"count":84,
			"type":"SCALAR"
		},
		{
			"bufferView":66,
			"componentType":5126,
			"count":96,
			"max":[
				2.158362627029419,
				0.10090994834899902,
				1.0298781394958496
			],
			"min":[
				-2.158362627029419,
				-1.8963454961776733,
				0.5057787895202637
			],
			"type":"VEC3"
		},
		{
			"bufferView":67,
			"componentType":5126,
			"count":96,
			"type":"VEC3"
		},
		{
			"bufferView":68,
			"componentType":5126,
			"count":96,
			"type":"VEC2"
		},
		{
			"bufferView":69,
			"componentType":5123,
			"count":168,
			"type":"SCALAR"
		},
		{
			"bufferView":70,
			"componentType":5126,
			"count":912,
			"max":[
				0.9570635557174683,
				2.6448519229888916,
				7.6929240226745605
			],
			"min":[
				-0.9481813311576843,
				-0.9418222904205322,
				-7.598491191864014
			],
			"type":"VEC3"
		},
		{
			"bufferView":71,
			"componentType":5126,
			"count":912,
			"type":"VEC3"
		},
		{
			"bufferView":72,
			"componentType":5126,
			"count":912,
			"type":"VEC2"
		},
		{
			"bufferView":73,
			"componentType":5123,
			"count":2754,
			"type":"SCALAR"
		}
	],
	"bufferViews":[
		{
			"buffer":0,
			"byteLength":216,
			"byteOffset":0,
			"target":34962
		},
		{
			"buffer":0,
			"byteLength":216,
			"byteOffset":216,
			"target":34962
		},
		{
			"buffer":0,
			"byteLength":144,
			"byteOffset":432,
			"target":34962
		},
		{
			"buffer":0,
			"byteLength":60,
			"byteOffset":576,
			"target":34963
		},
		{
			"buffer":0,
			"byteLength":48,
			"byteOffset":636,
			"target":34962
		},
		{
			"buffer":0,
			"byteLength":48,
			"byteOffset":684,
			"target":34962
		},
		{
			"buffer":0,
			"byteLength":32,
			"byteOffset":732,
			"target":34962
		},
		{
			"buffer":0,
			"byteLength":12,
			"byteOffset":764,
			"target":34963
		},
		{
			"buffer":0,
			"byteLength":72,
			"byteOffset":776,
			"target":34962
		},
		{
			"buffer":0,
			"byteLength":72,
			"byteOffset":848,
			"target":34962
		},
		{
			"buffer":0,
			"byteLength":48,
			"byteOffset":920,
			"target":34962
		},
		{
			"buffer":0,
			"byteLength":24,
			"byteOffset":968,
			"target":34963
		},
		{
			"buffer":0,
			"byteLength":264,
			"byteOffset":992,
			"target":34962
		},
		{
			"buffer":0,
			"byteLength":264,
			"byteOffset":1256,
			"target":34962
		},
		{
			"buffer":0,
			"byteLength":176,
			"byteOffset":1520,
			"target":34962
		},
		{
			"buffer":0,
			"byteLength":72,
			"byteOffset":1696,
			"target":34963
		},
		{
			"buffer":0,
			"byteLength":96,
			"byteOffset":1768,
			"target":34962
		},
		{
			"buffer":0,
			"byteLength":96,
			"byteOffset":1864,
			"target":34962
		},
		{
			"buffer":0,
			"byteLength":64,
			"byteOffset":1960,
			"target":34962
		},
		{
			"buffer":0,
			"byteLength":24,
			"byteOffset":2024,
			"target":34963
		},
		{
			"buffer":0,
			"byteLength":48,
			"byteOffset":2048,
			"target":34962
		},
		{
			"buffer":0,
			"byteLength":48,
			"byteOffset":2096,
			"target":34962
		},
		{
			"buffer":0,
			"byteLength":32,
			"byteOffset":2144,
			"target":34962
		},
		{
			"buffer":0,
			"byteLength":12,
			"byteOffset":2176,
			"target":34963
		},
		{
			"buffer":0,
			"byteLength":144,
			"byteOffset":2188,
			"target":34962
		},
		{
			"buffer":0,
			"byteLength":144,
			"byteOffset":2332,
			"target":34962
		},
		{
			"buffer":0,
			"byteLength":96,
			"byteOffset":2476,
			"target":34962
		},
		{
			"buffer":0,
			"byteLength":24,
			"byteOffset":2572,
			"target":34963
		},
		{
			"buffer":0,
			"byteLength":216,
			"byteOffset":2596,
			"target":34962
		},
		{
			"buffer":0,
			"byteLength":216,
			"byteOffset":2812,
			"target":34962
		},
		{
			"buffer":0,
			"byteLength":144,
			"byteOffset":3028,
			"target":34962
		},
		{
			"buffer":0,
			"byteLength":48,
			"byteOffset":3172,
			"target":34963
		},
		{
			"buffer":0,
			"byteLength":576,
			"byteOffset":3220,
			"target":34962
		},
		{
			"buffer":0,
			"byteLength":576,
			"byteOffset":3796,
			"target":34962
		},
		{
			"buffer":0,
			"byteLength":384,
			"byteOffset":4372,
			"target":34962
		},
		{
			"buffer":0,
			"byteLength":168,
			"byteOffset":4756,
			"target":34963
		},
		{
			"buffer":0,
			"byteLength":144,
			"byteOffset":4924,
			"target":34962
		},
		{
			"buffer":0,
			"byteLength":144,
			"byteOffset":5068,
			"target":34962
		},
		{
			"buffer":0,
			"byteLength":96,
			"byteOffset":5212,
			"target":34962
		},
		{
			"buffer":0,
			"byteLength":24,
			"byteOffset":5308,
			"target":34963
		},
		{
			"buffer":0,
			"byteLength":216,
			"byteOffset":5332,
			"target":34962
		},
		{
			"buffer":0,
			"byteLength":216,
			"byteOffset":5548,
			"target":34962
		},
		{
			"buffer":0,
			"byteLength":144,
			"byteOffset":5764,
			"target":34962
		},
		{
			"buffer":0,
			"byteLength":48,
			"byteOffset":5908,
			"target":34963
		},
		{
			"buffer":0,
			"byteLength":576,
			"byteOffset":5956,
			"target":34962
		},
		{
			"buffer":0,
			"byteLength":576,
			"byteOffset":6532,
			"target":34962
		},
		{
			"buffer":0,
			"byteLength":384,
			"byteOffset":7108,
			"target":34962
		},
		{
			"buffer":0,
			"byteLength":168,
			"byteOffset":7492,
			"target":34963
		},
		{
			"buffer":0,
			"byteLength":4608,
			"byteOffset":7660,
			"target":34962
		},
		{
			"buffer":0,
			"byteLength":4608,
			"byteOffset":12268,
			"target":34962
		},
		{
			"buffer":0,
			"byteLength":3072,
			"byteOffset":16876,
			"target":34962
		},
		{
			"buffer":0,
			"byteLength":1488,
			"byteOffset":19948,
			"target":34963
		},
		{
			"buffer":0,
			"byteLength":2304,
			"byteOffset":21436,
			"target":34962
		},
		{
			"buffer":0,
			"byteLength":2304,
			"byteOffset":23740,
			"target":34962
		},
		{
			"buffer":0,
			"byteLength":1536,
			"byteOffset":26044,
			"target":34962
		},
		{
			"buffer":0,
			"byteLength":768,
			"byteOffset":27580,
			"target":34963
		},
		{
			"buffer":0,
			"byteLength":4608,
			"byteOffset":28348,
			"target":34962
		},
		{
			"buffer":0,
			"byteLength":4608,
			"byteOffset":32956,
			"target":34962
		},
		{
			"buffer":0,
			"byteLength":3072,
			"byteOffset":37564,
			"target":34962
		},
		{
			"buffer":0,
			"byteLength":2304,
			"byteOffset":40636,
			"target":34962
		},
		{
			"buffer":0,
			"byteLength":2304,
			"byteOffset":42940,
			"target":34962
		},
		{
			"buffer":0,
			"byteLength":1536,
			"byteOffset":45244,
			"target":34962
		},
		{
			"buffer":0,
			"byteLength":576,
			"byteOffset":46780,
			"target":34962
		},
		{
			"buffer":0,
			"byteLength":576,
			"byteOffset":47356,
			"target":34962
		},
		{
			"buffer":0,
			"byteLength":384,
			"byteOffset":47932,
			"target":34962
		},
		{
			"buffer":0,
			"byteLength":168,
			"byteOffset":48316,
			"target":34963
		},
		{
			"buffer":0,
			"byteLength":1152,
			"byteOffset":48484,
			"target":34962
		},
		{
			"buffer":0,
			"byteLength":1152,
			"byteOffset":49636,
			"target":34962
		},
		{
			"buffer":0,
			"byteLength":768,
			"byteOffset":50788,
			"target":34962
		},
		{
			"buffer":0,
			"byteLength":336,
			"byteOffset":51556,
			"target":34963
		},
		{
			"buffer":0,
			"byteLength":10944,
			"byteOffset":51892,
			"target":34962
		},
		{
			"buffer":0,
			"byteLength":10944,
			"byteOffset":62836,
			"target":34962
		},
		{
			"buffer":0,
			"byteLength":7296,
			"byteOffset":73780,
			"target":34962
		},
		{
			"buffer":0,
			"byteLength":5508,
			"byteOffset":81076,
			"target":34963
		}
	],
	"samplers":[
		{
			"magFilter":9729,
			"minFilter":9987
		}
	],
	"buffers":[
		{
			"byteLength":86584,
			"uri":"m21_wg.bin"
		}
	]
}
